<?xml version="1.0" encoding="UTF-8" standalone="no"?>
<!DOCTYPE svg PUBLIC "-//W3C//DTD SVG 1.1//EN"
 "http://www.w3.org/Graphics/SVG/1.1/DTD/svg11.dtd">
<!-- Generated by graphviz version 2.43.0 (0)
 -->
<!-- Title: GH01_Wiring Pages: 1 -->
<svg width="1174pt" height="374pt"
 viewBox="0.00 0.00 1174.00 374.00" xmlns="http://www.w3.org/2000/svg" xmlns:xlink="http://www.w3.org/1999/xlink">
<g id="graph0" class="graph" transform="scale(1 1) rotate(0) translate(4 370)">
<title>GH01_Wiring</title>
<polygon fill="white" stroke="transparent" points="-4,4 -4,-370 1170,-370 1170,4 -4,4"/>
<text text-anchor="middle" x="583" y="-354" font-family="Helvetica,sans-Serif" font-size="10.00">GH01 Heater Control Wiring (Pin&#45;Level)</text>
<g id="clust1" class="cluster">
<title>cluster_lv</title>
<polygon fill="none" stroke="lightgrey" points="8,-8 8,-191 1158,-191 1158,-8 8,-8"/>
<text text-anchor="middle" x="583" y="-179" font-family="Helvetica,sans-Serif" font-size="10.00">Low Voltage Domain</text>
</g>
<g id="clust2" class="cluster">
<title>cluster_ac</title>
<polygon fill="none" stroke="lightgrey" points="117.5,-210 117.5,-339 1055,-339 1055,-210 117.5,-210"/>
<text text-anchor="middle" x="586.25" y="-327" font-family="Helvetica,sans-Serif" font-size="10.00">AC / Mains Domain</text>
</g>
<!-- xiao -->
<g id="node1" class="node">
<title>xiao</title>
<polygon fill="none" stroke="black" points="218,-21 218,-97 373,-97 373,-21 218,-21"/>
<text text-anchor="middle" x="261" y="-56.5" font-family="Helvetica,sans-Serif" font-size="10.00">XIAO ESP32C3</text>
<polyline fill="none" stroke="black" points="304,-21 304,-97 "/>
<text text-anchor="middle" x="338.5" y="-85" font-family="Helvetica,sans-Serif" font-size="10.00">D6/GPIO21</text>
<polyline fill="none" stroke="black" points="304,-78 373,-78 "/>
<text text-anchor="middle" x="338.5" y="-66" font-family="Helvetica,sans-Serif" font-size="10.00">GND</text>
<polyline fill="none" stroke="black" points="304,-59 373,-59 "/>
<text text-anchor="middle" x="338.5" y="-47" font-family="Helvetica,sans-Serif" font-size="10.00">3V3</text>
<polyline fill="none" stroke="black" points="304,-40 373,-40 "/>
<text text-anchor="middle" x="338.5" y="-28" font-family="Helvetica,sans-Serif" font-size="10.00">5V/VUSB</text>
</g>
<!-- rgate -->
<g id="node3" class="node">
<title>rgate</title>
<polygon fill="none" stroke="black" points="606.5,-118 534.5,-118 534.5,-82 606.5,-82 606.5,-118"/>
<text text-anchor="middle" x="570.5" y="-103" font-family="Helvetica,sans-Serif" font-size="10.00">R_GATE</text>
<text text-anchor="middle" x="570.5" y="-92" font-family="Helvetica,sans-Serif" font-size="10.00">100R..220R</text>
</g>
<!-- xiao&#45;&gt;rgate -->
<g id="edge1" class="edge">
<title>xiao:d6&#45;&gt;rgate</title>
<path fill="none" stroke="black" d="M373,-88C424.92,-88 484.42,-92.23 524.22,-95.66"/>
<polygon fill="black" stroke="black" points="524.13,-99.17 534.4,-96.56 524.74,-92.2 524.13,-99.17"/>
<text text-anchor="middle" x="453" y="-97.8" font-family="Helvetica,sans-Serif" font-size="9.00">control signal</text>
</g>
<!-- mosfet -->
<g id="node2" class="node">
<title>mosfet</title>
<polygon fill="none" stroke="black" points="786,-53.5 786,-110.5 917,-110.5 917,-53.5 786,-53.5"/>
<text text-anchor="middle" x="839.5" y="-79.5" font-family="Helvetica,sans-Serif" font-size="10.00">AO3400A (SOT&#45;23)</text>
<polyline fill="none" stroke="black" points="893,-53.5 893,-110.5 "/>
<text text-anchor="middle" x="905" y="-98.5" font-family="Helvetica,sans-Serif" font-size="10.00">G</text>
<polyline fill="none" stroke="black" points="893,-91.5 917,-91.5 "/>
<text text-anchor="middle" x="905" y="-79.5" font-family="Helvetica,sans-Serif" font-size="10.00">D</text>
<polyline fill="none" stroke="black" points="893,-72.5 917,-72.5 "/>
<text text-anchor="middle" x="905" y="-60.5" font-family="Helvetica,sans-Serif" font-size="10.00">S</text>
</g>
<!-- mosfet&#45;&gt;xiao -->
<g id="edge7" class="edge">
<title>mosfet:s&#45;&gt;xiao:gnd</title>
<path fill="none" stroke="black" d="M905.5,-52C905.5,-38.24 458.04,-64.76 383.23,-68.56"/>
<polygon fill="black" stroke="black" points="382.84,-65.07 373,-69 383.14,-72.06 382.84,-65.07"/>
<text text-anchor="middle" x="570.5" y="-63.8" font-family="Helvetica,sans-Serif" font-size="9.00">Source to GND</text>
</g>
<!-- rpulldown -->
<g id="node4" class="node">
<title>rpulldown</title>
<polygon fill="none" stroke="black" points="1150,-71 1065,-71 1065,-35 1150,-35 1150,-71"/>
<text text-anchor="middle" x="1107.5" y="-56" font-family="Helvetica,sans-Serif" font-size="10.00">R_PULLDOWN</text>
<text text-anchor="middle" x="1107.5" y="-45" font-family="Helvetica,sans-Serif" font-size="10.00">100k</text>
</g>
<!-- mosfet&#45;&gt;rpulldown -->
<g id="edge3" class="edge">
<title>mosfet:g&#45;&gt;rpulldown</title>
<path fill="none" stroke="black" d="M917,-101C964.82,-101 1017.41,-86.46 1055.03,-73.38"/>
<polygon fill="black" stroke="black" points="1056.5,-76.58 1064.74,-69.92 1054.15,-69.98 1056.5,-76.58"/>
</g>
<!-- rgate&#45;&gt;mosfet -->
<g id="edge2" class="edge">
<title>rgate&#45;&gt;mosfet:g</title>
<path fill="none" stroke="black" d="M606.61,-108.46C687.01,-126.98 879.36,-166.03 903.09,-121.95"/>
<polygon fill="black" stroke="black" points="906.54,-122.54 905.5,-112 899.74,-120.89 906.54,-122.54"/>
</g>
<!-- rpulldown&#45;&gt;xiao -->
<g id="edge4" class="edge">
<title>rpulldown&#45;&gt;xiao:gnd</title>
<path fill="none" stroke="black" d="M1064.73,-51.01C1026.33,-49.18 967.83,-46.4 917,-44 850.78,-40.87 834.28,-38.56 768,-37 704.91,-35.52 689.05,-34.19 626,-37 521.24,-41.67 490.58,-25.13 391,-58 386.55,-59.47 384.39,-62.22 382.18,-64.6"/>
<polygon fill="black" stroke="black" points="380.51,-61.52 373,-69 383.53,-67.83 380.51,-61.52"/>
<text text-anchor="middle" x="697" y="-39.8" font-family="Helvetica,sans-Serif" font-size="9.00">to GND</text>
</g>
<!-- psu5 -->
<g id="node5" class="node">
<title>psu5</title>
<polygon fill="none" stroke="black" points="103,-126 16,-126 16,-90 103,-90 103,-126"/>
<text text-anchor="middle" x="59.5" y="-111" font-family="Helvetica,sans-Serif" font-size="10.00">AC&#45;DC Module</text>
<text text-anchor="middle" x="59.5" y="-100" font-family="Helvetica,sans-Serif" font-size="10.00">+5V / 0V</text>
</g>
<!-- psu5&#45;&gt;xiao -->
<g id="edge8" class="edge">
<title>psu5&#45;&gt;xiao:gnd</title>
<path fill="none" stroke="black" d="M103.09,-102.26C107.95,-101.76 112.82,-101.32 117.5,-101 124.6,-100.52 368.42,-102.47 373.5,-97.5 376.12,-94.94 378.16,-85.81 378.19,-78.57"/>
<polygon fill="black" stroke="black" points="381.37,-77.07 374.5,-69 374.84,-79.59 381.37,-77.07"/>
<text text-anchor="middle" x="160.5" y="-103.8" font-family="Helvetica,sans-Serif" font-size="9.00">0V common GND</text>
</g>
<!-- ssr_in -->
<g id="node6" class="node">
<title>ssr_in</title>
<polygon fill="none" stroke="black" points="391,-125 391,-163 515,-163 515,-125 391,-125"/>
<text text-anchor="middle" x="435.5" y="-141.5" font-family="Helvetica,sans-Serif" font-size="10.00">CX240D5 Input</text>
<polyline fill="none" stroke="black" points="480,-125 480,-163 "/>
<text text-anchor="middle" x="497.5" y="-151" font-family="Helvetica,sans-Serif" font-size="10.00">IN+</text>
<polyline fill="none" stroke="black" points="480,-144 515,-144 "/>
<text text-anchor="middle" x="497.5" y="-132" font-family="Helvetica,sans-Serif" font-size="10.00">IN&#45;</text>
</g>
<!-- psu5&#45;&gt;ssr_in -->
<g id="edge5" class="edge">
<title>psu5&#45;&gt;ssr_in:inp</title>
<path fill="none" stroke="black" d="M103.25,-122.34C208.17,-156.46 471.7,-235.21 496.17,-174.06"/>
<polygon fill="black" stroke="black" points="499.65,-174.46 498,-164 492.77,-173.21 499.65,-174.46"/>
<text text-anchor="middle" x="160.5" y="-153.8" font-family="Helvetica,sans-Serif" font-size="9.00">+5V to IN+</text>
</g>
<!-- ssr_in&#45;&gt;mosfet -->
<g id="edge6" class="edge">
<title>ssr_in:inn&#45;&gt;mosfet:d</title>
<path fill="none" stroke="black" d="M515,-134C627.46,-134 655.83,-137.99 768,-130 834.81,-125.24 872.37,-160.49 917.5,-111 920.05,-108.21 922.17,-98.73 922.19,-91.36"/>
<polygon fill="black" stroke="black" points="925.42,-90.02 918.5,-82 918.91,-92.59 925.42,-90.02"/>
<text text-anchor="middle" x="570.5" y="-137.8" font-family="Helvetica,sans-Serif" font-size="9.00">IN&#45; to Drain</text>
</g>
<!-- ssr_out -->
<g id="node9" class="node">
<title>ssr_out</title>
<polygon fill="none" stroke="black" points="626,-227 626,-265 768,-265 768,-227 626,-227"/>
<text text-anchor="middle" x="675" y="-243.5" font-family="Helvetica,sans-Serif" font-size="10.00">CX240D5 Output</text>
<polyline fill="none" stroke="black" points="724,-227 724,-265 "/>
<text text-anchor="middle" x="746" y="-253" font-family="Helvetica,sans-Serif" font-size="10.00">OUT1</text>
<polyline fill="none" stroke="black" points="724,-246 768,-246 "/>
<text text-anchor="middle" x="746" y="-234" font-family="Helvetica,sans-Serif" font-size="10.00">OUT2</text>
</g>
<!-- ssr_in&#45;&gt;ssr_out -->
<g id="edge14" class="edge">
<title>ssr_in&#45;&gt;ssr_out</title>
<path fill="none" stroke="black" stroke-dasharray="5,2" d="M499.23,-163.07C542.46,-181.29 607.28,-208.61 650.58,-226.85"/>
<text text-anchor="middle" x="570.5" y="-219.8" font-family="Helvetica,sans-Serif" font-size="9.00">internal isolation</text>
<text text-anchor="middle" x="570.5" y="-209.8" font-family="Helvetica,sans-Serif" font-size="9.00">(control vs load)</text>
</g>
<!-- mains -->
<g id="node7" class="node">
<title>mains</title>
<polygon fill="none" stroke="black" points="195.5,-300 125.5,-300 125.5,-264 195.5,-264 195.5,-300"/>
<text text-anchor="middle" x="160.5" y="-285" font-family="Helvetica,sans-Serif" font-size="10.00">240V AC In</text>
<text text-anchor="middle" x="160.5" y="-274" font-family="Helvetica,sans-Serif" font-size="10.00">L / N / PE</text>
</g>
<!-- fuse -->
<g id="node8" class="node">
<title>fuse</title>
<polygon fill="none" stroke="black" points="502,-298 404,-298 404,-262 502,-262 502,-298"/>
<text text-anchor="middle" x="453" y="-283" font-family="Helvetica,sans-Serif" font-size="10.00">Fuse / Protection</text>
<text text-anchor="middle" x="453" y="-272" font-family="Helvetica,sans-Serif" font-size="10.00">(Live path)</text>
</g>
<!-- mains&#45;&gt;fuse -->
<g id="edge9" class="edge">
<title>mains&#45;&gt;fuse</title>
<path fill="none" stroke="black" d="M195.68,-281.76C244.35,-281.43 334.3,-280.81 393.64,-280.4"/>
<polygon fill="black" stroke="black" points="394.01,-283.9 403.98,-280.33 393.96,-276.9 394.01,-283.9"/>
<text text-anchor="middle" x="295.5" y="-283.8" font-family="Helvetica,sans-Serif" font-size="9.00">Live (L)</text>
</g>
<!-- cable -->
<g id="node10" class="node">
<title>cable</title>
<polygon fill="none" stroke="black" points="1047,-272 935,-272 935,-236 1047,-236 1047,-272"/>
<text text-anchor="middle" x="991" y="-257" font-family="Helvetica,sans-Serif" font-size="10.00">Soil Warming Cable</text>
<text text-anchor="middle" x="991" y="-246" font-family="Helvetica,sans-Serif" font-size="10.00">27W / 3m</text>
</g>
<!-- mains&#45;&gt;cable -->
<g id="edge12" class="edge">
<title>mains&#45;&gt;cable</title>
<path fill="none" stroke="black" d="M195.66,-291.03C202.98,-292.64 210.71,-294.09 218,-295 294.31,-304.56 314.1,-298.11 391,-299 446.11,-299.64 459.95,-301.6 515,-299 661.94,-292.06 833.6,-273.09 924.97,-262.12"/>
<polygon fill="black" stroke="black" points="925.4,-265.6 934.9,-260.93 924.56,-258.65 925.4,-265.6"/>
<text text-anchor="middle" x="570.5" y="-300.8" font-family="Helvetica,sans-Serif" font-size="9.00">Neutral (N)</text>
</g>
<!-- earth -->
<g id="node11" class="node">
<title>earth</title>
<polygon fill="none" stroke="black" points="499,-254 407,-254 407,-218 499,-218 499,-254"/>
<text text-anchor="middle" x="453" y="-239" font-family="Helvetica,sans-Serif" font-size="10.00">PE to Enclosure</text>
<text text-anchor="middle" x="453" y="-228" font-family="Helvetica,sans-Serif" font-size="10.00">(as required)</text>
</g>
<!-- mains&#45;&gt;earth -->
<g id="edge13" class="edge">
<title>mains&#45;&gt;earth</title>
<path fill="none" stroke="black" d="M195.66,-271.45C202.98,-269.43 210.71,-267.49 218,-266 278.56,-253.61 349.05,-245.41 396.71,-240.75"/>
<polygon fill="black" stroke="black" points="397.19,-244.22 406.81,-239.79 396.53,-237.25 397.19,-244.22"/>
<text text-anchor="middle" x="295.5" y="-268.8" font-family="Helvetica,sans-Serif" font-size="9.00">PE</text>
</g>
<!-- fuse&#45;&gt;ssr_out -->
<g id="edge10" class="edge">
<title>fuse&#45;&gt;ssr_out:out1</title>
<path fill="none" stroke="black" d="M502.38,-273.04C512.48,-271.83 523.07,-270.72 533,-270 535.56,-269.81 693.86,-269.17 735.86,-267.07"/>
<polygon fill="black" stroke="black" points="736.42,-270.53 746,-266 735.69,-263.57 736.42,-270.53"/>
<text text-anchor="middle" x="570.5" y="-272.8" font-family="Helvetica,sans-Serif" font-size="9.00">to OUT1</text>
</g>
<!-- ssr_out&#45;&gt;cable -->
<g id="edge11" class="edge">
<title>ssr_out:out2&#45;&gt;cable</title>
<path fill="none" stroke="black" d="M768,-236C820.91,-236 880.69,-241.14 924.87,-245.93"/>
<polygon fill="black" stroke="black" points="924.58,-249.42 934.9,-247.04 925.35,-242.46 924.58,-249.42"/>
<text text-anchor="middle" x="851.5" y="-247.8" font-family="Helvetica,sans-Serif" font-size="9.00">switched Live to cable</text>
</g>
</g>
</svg>
